<svg xmlns="http://www.w3.org/2000/svg" width="27.47" height="28.47" viewBox="0 0 27.47 28.47"><defs><style>.cls-1{fill-rule:evenodd}</style></defs><path id="certificate.svg" class="cls-1" d="M1089.44 1413a.5.5 0 0 0-.4-.34l-3.89-.55-1.73-3.39a.516.516 0 0 0-.89 0l-1.73 3.39-3.89.55a.487.487 0 0 0-.4.34.5.5 0 0 0 .13.52l2.8 2.64-.66 3.72a.521.521 0 0 0 .19.49.508.508 0 0 0 .53.04l3.47-1.76 3.48 1.76a.465.465 0 0 0 .23.06.566.566 0 0 0 .3-.1.513.513 0 0 0 .19-.49l-.66-3.72 2.8-2.64a.5.5 0 0 0 .13-.52zm-3.81 2.61a.523.523 0 0 0-.15.46l.53 2.99-2.81-1.42a.465.465 0 0 0-.23-.06.456.456 0 0 0-.22.06l-2.81 1.42.53-2.99a.523.523 0 0 0-.15-.46l-2.24-2.1 3.11-.44a.5.5 0 0 0 .38-.27l1.4-2.75 1.41 2.75a.473.473 0 0 0 .38.27l3.1.44zm-1.16-17.6h-8.99a.5.5 0 0 0 0 1h8.99a.5.5 0 0 0 0-1zm0 7.01h-8.99a.508.508 0 0 0-.5.5.5.5 0 0 0 .5.5h8.99a.5.5 0 0 0 .5-.5.5.5 0 0 0-.5-.5zm-12.19-9.39a.505.505 0 0 0-.71.05l-3.12 3.65-1.91-1.43a.476.476 0 0 0-.69.1.489.489 0 0 0 .1.7l2.28 1.71a.482.482 0 0 0 .3.11.493.493 0 0 0 .38-.18l3.42-4.01a.493.493 0 0 0-.05-.7zm0 7.01a.505.505 0 0 0-.71.05l-3.12 3.65-1.91-1.43a.5.5 0 0 0-.59.8l2.28 1.72a.539.539 0 0 0 .3.1.493.493 0 0 0 .38-.18l3.42-4.01a.494.494 0 0 0-.05-.7zm-.71 7.57l-3.12 3.65-1.91-1.44a.493.493 0 0 0-.69.1.488.488 0 0 0 .1.7l2.28 1.72a.472.472 0 0 0 .3.1.493.493 0 0 0 .38-.18l3.42-4a.5.5 0 1 0-.76-.65zm3.91 7.84h-7.4a5.1 5.1 0 0 1-5.08-5.1v-14.85a5.1 5.1 0 0 1 5.08-5.1h14.81a5.1 5.1 0 0 1 5.08 5.1v11.97a.5.5 0 0 0 .5.5.5.5 0 0 0 .5-.5v-11.97a6.1 6.1 0 0 0-6.08-6.1h-14.81a6.1 6.1 0 0 0-6.08 6.1v14.85a6.1 6.1 0 0 0 6.08 6.1h7.4a.5.5 0 0 0 .5-.5.5.5 0 0 0-.5-.5z" transform="translate(-1062 -1392)"/></svg>