<svg xmlns="http://www.w3.org/2000/svg" width="30" height="30" viewBox="0 0 30 30"><defs><style>.cls-1{fill-rule:evenodd}</style></defs><path id="clock.svg" class="cls-1" d="M1075.5 1442a15 15 0 1 0 15 15 15.018 15.018 0 0 0-15-15zm0 29a14 14 0 1 1 14-14 14.015 14.015 0 0 1-14 14zm.5-15.99v-5.07a.5.5 0 0 0-1 0v5.07a1.992 1.992 0 0 0-1.43 1.43H1070a.5.5 0 0 0 0 1h3.57a2 2 0 1 0 2.43-2.43zm-.5 2.93a1 1 0 1 1 1-1 1 1 0 0 1-1 1zm0-11a.5.5 0 0 0 .5-.5v-.5a.5.5 0 0 0-1 0v.5a.5.5 0 0 0 .5.5zm0 20a.5.5 0 0 0-.5.5v.5a.5.5 0 0 0 1 0v-.5a.5.5 0 0 0-.5-.5zm11-10.5h-.5a.5.5 0 0 0 0 1h.5a.5.5 0 0 0 0-1zm-21.5 0h-.5a.5.5 0 0 0 0 1h.5a.5.5 0 0 0 0-1zm17.92-7.63l-.35.35a.513.513 0 0 0 0 .71.491.491 0 0 0 .35.14.5.5 0 0 0 .36-.14l.35-.36a.483.483 0 0 0 0-.7.5.5 0 0 0-.71 0zm-15.2 15.2l-.35.35a.5.5 0 0 0 0 .71.485.485 0 0 0 .35.15.508.508 0 0 0 .36-.15l.35-.35a.5.5 0 0 0-.71-.71zm15.56 0a.5.5 0 0 0-.71.71l.35.35a.508.508 0 0 0 .36.15.485.485 0 0 0 .35-.15.5.5 0 0 0 0-.71zm-15.2-15.2a.5.5 0 0 0-.71 0 .483.483 0 0 0 0 .7l.35.36a.5.5 0 0 0 .36.14.491.491 0 0 0 .35-.14.513.513 0 0 0 0-.71z" transform="translate(-1060.5 -1442)"/></svg>