<svg xmlns="http://www.w3.org/2000/svg" width="41" height="35" viewBox="0 0 41 35"><defs><style>.cls-1{fill:none;stroke:#fff;stroke-linejoin:round;stroke-opacity:.54;stroke-width:1px;fill-rule:evenodd}</style></defs><path id="fa-envelope.svg" class="cls-1" d="M1371.12 7101.06q-6.225 4.35-9.46 6.76c-.72.54-1.31.97-1.75 1.28a11.252 11.252 0 0 1-1.8.94 5.331 5.331 0 0 1-2.09.48h-.04a5.369 5.369 0 0 1-2.09-.48 11.1 11.1 0 0 1-1.79-.94c-.45-.31-1.04-.74-1.76-1.28q-2.565-1.95-9.44-6.76a10.434 10.434 0 0 1-1.92-1.7v15.54a3.073 3.073 0 0 0 .89 2.21 2.868 2.868 0 0 0 2.15.92h27.96a2.868 2.868 0 0 0 2.15-.92 3.033 3.033 0 0 0 .89-2.21v-15.54a10.418 10.418 0 0 1-1.9 1.7zm1-9.67a2.9 2.9 0 0 0-2.14-.92h-27.96a2.662 2.662 0 0 0-2.25 1.02 4.01 4.01 0 0 0-.79 2.54 4.691 4.691 0 0 0 1.04 2.68 9.778 9.778 0 0 0 2.23 2.26q.645.465 3.89 2.78t4.98 3.58c.13.09.39.29.81.6s.75.55 1.02.74.6.4.99.64a5.6 5.6 0 0 0 1.09.52 2.881 2.881 0 0 0 .95.18h.04a2.881 2.881 0 0 0 .95-.18 5.339 5.339 0 0 0 1.09-.52c.39-.24.72-.45.99-.64s.61-.44 1.03-.74.68-.51.8-.6q1.755-1.26 8.89-6.36a9.162 9.162 0 0 0 2.32-2.41 5.277 5.277 0 0 0 .93-2.96 3.042 3.042 0 0 0-.9-2.21z" transform="translate(-1335.5 -7086.5)"/></svg>