<svg xmlns="http://www.w3.org/2000/svg" width="22" height="31.5" viewBox="0 0 22 31.5"><defs><style>.cls-1{fill:#fff;fill-rule:evenodd}</style></defs><path id="location.svg" class="cls-1" d="M949.6 7093.9a4.03 4.03 0 1 0 4.015 4.03 4.029 4.029 0 0 0-4.015-4.03zm0 6.91a2.88 2.88 0 1 1 2.868-2.88 2.876 2.876 0 0 1-2.868 2.88zm7.677-10.58a10.98 10.98 0 0 0-15.556 0c-3.845 3.86-4.323 11.11-1.035 15.51l8.813 12.76 8.8-12.75c3.301-4.41 2.824-11.66-1.021-15.52zm.091 14.85l-7.869 11.4-7.882-11.42c-2.982-3.98-2.555-10.53.915-14.01a9.819 9.819 0 0 1 13.934 0c3.471 3.48 3.898 10.03.903 14.03z" transform="translate(-938.5 -7087)"/></svg>