<svg xmlns="http://www.w3.org/2000/svg" width="13.5" height="13.5" viewBox="0 0 13.5 13.5"><defs><style>.cls-1{fill:#c20000;fill-rule:evenodd}</style></defs><path id="no.svg" class="cls-1" d="M387.192 2350.97a.308.308 0 0 1 0-.44l4.623-4.62a.592.592 0 0 0 0-.86l-.863-.86a.64.64 0 0 0-.431-.19.543.543 0 0 0-.432.19l-4.623 4.62a.3.3 0 0 1-.432 0l-4.623-4.62a.585.585 0 0 0-.863 0l-.863.86a.592.592 0 0 0 0 .86l4.623 4.62a.307.307 0 0 1 0 .44l-4.623 4.62a.592.592 0 0 0 0 .86l.863.86a.585.585 0 0 0 .863 0l4.623-4.62a.3.3 0 0 1 .432 0l4.623 4.62a.585.585 0 0 0 .863 0l.863-.86a.592.592 0 0 0 0-.86z" transform="translate(-378.5 -2344)"/></svg>