<svg xmlns="http://www.w3.org/2000/svg" width="38" height="39" viewBox="0 0 38 39"><defs><style>.cls-1{fill:none;stroke:#fff;stroke-linejoin:round;stroke-opacity:.54;stroke-width:1px;fill-rule:evenodd}</style></defs><path id="fa-phone.svg" class="cls-1" d="M570.95 7110.91a3.91 3.91 0 0 0-1.7-1.18c-.284-.17-.687-.39-1.209-.67s-1-.55-1.422-.79-.825-.47-1.2-.69c-.06-.05-.247-.18-.56-.4a8.133 8.133 0 0 0-.8-.48 1.515 1.515 0 0 0-.638-.15 1.866 1.866 0 0 0-1.12.63 11.232 11.232 0 0 0-1.232 1.39 12.938 12.938 0 0 1-1.187 1.39 1.687 1.687 0 0 1-1.03.64 1.633 1.633 0 0 1-.5-.11c-.2-.08-.354-.14-.458-.19s-.284-.16-.538-.31-.4-.25-.425-.26a23.762 23.762 0 0 1-5.263-3.9 23.361 23.361 0 0 1-3.9-5.27c-.016-.02-.1-.17-.258-.42s-.261-.43-.314-.54a4.77 4.77 0 0 1-.19-.46 1.5 1.5 0 0 1-.112-.5 1.709 1.709 0 0 1 .638-1.03 14.1 14.1 0 0 1 1.389-1.19 10.48 10.48 0 0 0 1.388-1.23 1.858 1.858 0 0 0 .638-1.12 1.482 1.482 0 0 0-.156-.64 7.321 7.321 0 0 0-.482-.8c-.216-.31-.347-.49-.392-.56-.224-.37-.455-.77-.694-1.19s-.5-.9-.784-1.43-.508-.92-.671-1.2a3.859 3.859 0 0 0-1.188-1.71 1.346 1.346 0 0 0-.47-.07 7.426 7.426 0 0 0-1.579.23 9.35 9.35 0 0 0-1.533.47 5.961 5.961 0 0 0-2.374 2.73 8.735 8.735 0 0 0-1.142 4.17 8.622 8.622 0 0 0 .078 1.17 9.18 9.18 0 0 0 .28 1.29c.134.48.242.84.325 1.07s.235.64.459 1.24.358.96.4 1.1a20.338 20.338 0 0 0 1.859 3.92 37.747 37.747 0 0 0 10.749 10.75 19.92 19.92 0 0 0 3.918 1.86c.135.04.5.18 1.1.4s1.011.38 1.243.46.585.19 1.063.33a12.078 12.078 0 0 0 1.288.28 9.022 9.022 0 0 0 1.176.08 8.714 8.714 0 0 0 4.165-1.15 6.006 6.006 0 0 0 2.732-2.37 8.877 8.877 0 0 0 .47-1.54 7.369 7.369 0 0 0 .224-1.58 1.3 1.3 0 0 0-.067-.47z" transform="translate(-536.5 -7082.5)"/></svg>