<svg xmlns="http://www.w3.org/2000/svg" width="27.47" height="28.47" viewBox="0 0 27.47 28.47">
  <defs>
    <style>
      .cls-1 {
        fill-rule: evenodd;
      }
    </style>
  </defs>
  <path id="certificate.svg" class="cls-1" d="M1089.44,1413a0.5,0.5,0,0,0-.4-0.34l-3.89-.55-1.73-3.39a0.516,0.516,0,0,0-.89,0l-1.73,3.39-3.89.55a0.487,0.487,0,0,0-.4.34,0.5,0.5,0,0,0,.13.52l2.8,2.64-0.66,3.72a0.521,0.521,0,0,0,.19.49,0.508,0.508,0,0,0,.53.04l3.47-1.76,3.48,1.76a0.465,0.465,0,0,0,.23.06,0.566,0.566,0,0,0,.3-0.1,0.513,0.513,0,0,0,.19-0.49l-0.66-3.72,2.8-2.64A0.5,0.5,0,0,0,1089.44,1413Zm-3.81,2.61a0.523,0.523,0,0,0-.15.46l0.53,2.99-2.81-1.42a0.465,0.465,0,0,0-.23-0.06,0.456,0.456,0,0,0-.22.06l-2.81,1.42,0.53-2.99a0.523,0.523,0,0,0-.15-0.46l-2.24-2.1,3.11-.44a0.5,0.5,0,0,0,.38-0.27l1.4-2.75,1.41,2.75a0.473,0.473,0,0,0,.38.27l3.1,0.44Zm-1.16-17.6h-8.99a0.5,0.5,0,0,0,0,1h8.99A0.5,0.5,0,0,0,1084.47,1398.01Zm0,7.01h-8.99a0.508,0.508,0,0,0-.5.5,0.5,0.5,0,0,0,.5.5h8.99a0.5,0.5,0,0,0,.5-0.5A0.5,0.5,0,0,0,1084.47,1405.02Zm-12.19-9.39a0.505,0.505,0,0,0-.71.05l-3.12,3.65-1.91-1.43a0.476,0.476,0,0,0-.69.1,0.489,0.489,0,0,0,.1.7l2.28,1.71a0.482,0.482,0,0,0,.3.11,0.493,0.493,0,0,0,.38-0.18l3.42-4.01A0.493,0.493,0,0,0,1072.28,1395.63Zm0,7.01a0.505,0.505,0,0,0-.71.05l-3.12,3.65-1.91-1.43a0.5,0.5,0,0,0-.59.8l2.28,1.72a0.539,0.539,0,0,0,.3.1,0.493,0.493,0,0,0,.38-0.18l3.42-4.01A0.494,0.494,0,0,0,1072.28,1402.64Zm-0.71,7.57-3.12,3.65-1.91-1.44a0.493,0.493,0,0,0-.69.1,0.488,0.488,0,0,0,.1.7l2.28,1.72a0.472,0.472,0,0,0,.3.1,0.493,0.493,0,0,0,.38-0.18l3.42-4A0.5,0.5,0,1,0,1071.57,1410.21Zm3.91,7.84h-7.4a5.1,5.1,0,0,1-5.08-5.1V1398.1a5.1,5.1,0,0,1,5.08-5.1h14.81a5.1,5.1,0,0,1,5.08,5.1v11.97a0.5,0.5,0,0,0,.5.5,0.5,0.5,0,0,0,.5-0.5V1398.1a6.1,6.1,0,0,0-6.08-6.1h-14.81a6.1,6.1,0,0,0-6.08,6.1v14.85a6.1,6.1,0,0,0,6.08,6.1h7.4a0.5,0.5,0,0,0,.5-0.5A0.5,0.5,0,0,0,1075.48,1418.05Z" transform="translate(-1062 -1392)"/>
</svg>
