<svg xmlns="http://www.w3.org/2000/svg" width="30" height="30" viewBox="0 0 30 30">
  <defs>
    <style>
      .cls-1 {
        fill-rule: evenodd;
      }
    </style>
  </defs>
  <path id="clock.svg" class="cls-1" d="M1075.5,1442a15,15,0,1,0,15,15A15.018,15.018,0,0,0,1075.5,1442Zm0,29a14,14,0,1,1,14-14A14.015,14.015,0,0,1,1075.5,1471Zm0.5-15.99v-5.07a0.5,0.5,0,0,0-1,0v5.07a1.992,1.992,0,0,0-1.43,1.43H1070a0.5,0.5,0,0,0,0,1h3.57A2,2,0,1,0,1076,1455.01Zm-0.5,2.93a1,1,0,1,1,1-1A1,1,0,0,1,1075.5,1457.94Zm0-11a0.5,0.5,0,0,0,.5-0.5v-0.5a0.5,0.5,0,0,0-1,0v0.5A0.5,0.5,0,0,0,1075.5,1446.94Zm0,20a0.5,0.5,0,0,0-.5.5v0.5a0.5,0.5,0,0,0,1,0v-0.5A0.5,0.5,0,0,0,1075.5,1466.94Zm11-10.5H1086a0.5,0.5,0,0,0,0,1h0.5A0.5,0.5,0,0,0,1086.5,1456.44Zm-21.5,0h-0.5a0.5,0.5,0,0,0,0,1h0.5A0.5,0.5,0,0,0,1065,1456.44Zm17.92-7.63-0.35.35a0.513,0.513,0,0,0,0,.71,0.491,0.491,0,0,0,.35.14,0.5,0.5,0,0,0,.36-0.14l0.35-.36a0.483,0.483,0,0,0,0-.7A0.5,0.5,0,0,0,1082.92,1448.81Zm-15.2,15.2-0.35.35a0.5,0.5,0,0,0,0,.71,0.485,0.485,0,0,0,.35.15,0.508,0.508,0,0,0,.36-0.15l0.35-.35A0.5,0.5,0,0,0,1067.72,1464.01Zm15.56,0a0.5,0.5,0,0,0-.71.71l0.35,0.35a0.508,0.508,0,0,0,.36.15,0.485,0.485,0,0,0,.35-0.15,0.5,0.5,0,0,0,0-.71Zm-15.2-15.2a0.5,0.5,0,0,0-.71,0,0.483,0.483,0,0,0,0,.7l0.35,0.36a0.5,0.5,0,0,0,.36.14,0.491,0.491,0,0,0,.35-0.14,0.513,0.513,0,0,0,0-.71Z" transform="translate(-1060.5 -1442)"/>
</svg>
