<svg xmlns="http://www.w3.org/2000/svg" width="13.5" height="13.5" viewBox="0 0 13.5 13.5">
  <defs>
    <style>
      .cls-1 {
        fill: #c20000;
        fill-rule: evenodd;
      }
    </style>
  </defs>
  <path id="no.svg" class="cls-1" d="M387.192,2350.97a0.308,0.308,0,0,1,0-.44l4.623-4.62a0.592,0.592,0,0,0,0-.86l-0.863-.86a0.64,0.64,0,0,0-.431-0.19,0.543,0.543,0,0,0-.432.19l-4.623,4.62a0.3,0.3,0,0,1-.432,0l-4.623-4.62a0.585,0.585,0,0,0-.863,0l-0.863.86a0.592,0.592,0,0,0,0,.86l4.623,4.62a0.307,0.307,0,0,1,0,.44l-4.623,4.62a0.592,0.592,0,0,0,0,.86l0.863,0.86a0.585,0.585,0,0,0,.863,0l4.623-4.62a0.3,0.3,0,0,1,.432,0l4.623,4.62a0.585,0.585,0,0,0,.863,0l0.863-.86a0.592,0.592,0,0,0,0-.86Z" transform="translate(-378.5 -2344)"/>
</svg>
