<svg xmlns="http://www.w3.org/2000/svg" width="38" height="39" viewBox="0 0 38 39">
  <defs>
    <style>
      .cls-1 {
        fill: none;
        stroke: #fff;
        stroke-linejoin: round;
        stroke-opacity: 0.54;
        stroke-width: 1px;
        fill-rule: evenodd;
      }
    </style>
  </defs>
  <path id="fa-phone.svg" class="cls-1" d="M570.95,7110.91a3.91,3.91,0,0,0-1.7-1.18c-0.284-.17-0.687-0.39-1.209-0.67s-1-.55-1.422-0.79-0.825-.47-1.2-0.69c-0.06-.05-0.247-0.18-0.56-0.4a8.133,8.133,0,0,0-.8-0.48,1.515,1.515,0,0,0-.638-0.15,1.866,1.866,0,0,0-1.12.63,11.232,11.232,0,0,0-1.232,1.39,12.938,12.938,0,0,1-1.187,1.39,1.687,1.687,0,0,1-1.03.64,1.633,1.633,0,0,1-.5-0.11c-0.2-.08-0.354-0.14-0.458-0.19s-0.284-.16-0.538-0.31-0.4-.25-0.425-0.26a23.762,23.762,0,0,1-5.263-3.9,23.361,23.361,0,0,1-3.9-5.27c-0.016-.02-0.1-0.17-0.258-0.42s-0.261-.43-0.314-0.54a4.77,4.77,0,0,1-.19-0.46,1.5,1.5,0,0,1-.112-0.5,1.709,1.709,0,0,1,.638-1.03,14.1,14.1,0,0,1,1.389-1.19,10.48,10.48,0,0,0,1.388-1.23,1.858,1.858,0,0,0,.638-1.12,1.482,1.482,0,0,0-.156-0.64,7.321,7.321,0,0,0-.482-0.8c-0.216-.31-0.347-0.49-0.392-0.56-0.224-.37-0.455-0.77-0.694-1.19s-0.5-.9-0.784-1.43-0.508-.92-0.671-1.2a3.859,3.859,0,0,0-1.188-1.71,1.346,1.346,0,0,0-.47-0.07,7.426,7.426,0,0,0-1.579.23,9.35,9.35,0,0,0-1.533.47,5.961,5.961,0,0,0-2.374,2.73,8.735,8.735,0,0,0-1.142,4.17,8.622,8.622,0,0,0,.078,1.17,9.18,9.18,0,0,0,.28,1.29c0.134,0.48.242,0.84,0.325,1.07s0.235,0.64.459,1.24,0.358,0.96.4,1.1a20.338,20.338,0,0,0,1.859,3.92,37.747,37.747,0,0,0,10.749,10.75,19.92,19.92,0,0,0,3.918,1.86c0.135,0.04.5,0.18,1.1,0.4s1.011,0.38,1.243.46,0.585,0.19,1.063.33a12.078,12.078,0,0,0,1.288.28,9.022,9.022,0,0,0,1.176.08,8.714,8.714,0,0,0,4.165-1.15,6.006,6.006,0,0,0,2.732-2.37,8.877,8.877,0,0,0,.47-1.54,7.369,7.369,0,0,0,.224-1.58,1.3,1.3,0,0,0-.067-0.47h0Z" transform="translate(-536.5 -7082.5)"/>
</svg>
