<svg xmlns="http://www.w3.org/2000/svg" width="15.5" height="13" viewBox="0 0 15.5 13">
  <defs>
    <style>
      .cls-1 {
        fill: #6a9c00;
        fill-rule: evenodd;
      }
    </style>
  </defs>
  <path id="yes.svg" class="cls-1" d="M390.806,2265.58l2.085,1.74a0.309,0.309,0,0,1,.04.43l-8.961,10.64a0.311,0.311,0,0,1-.264.11,0.349,0.349,0,0,1-.189-0.08l-5.9-4.93a0.315,0.315,0,0,1-.046-0.44l1.744-2.07a0.313,0.313,0,0,1,.439-0.03l3.6,3.01,7.026-8.35A0.3,0.3,0,0,1,390.806,2265.58Z" transform="translate(-377.5 -2265.5)"/>
</svg>
