<svg width="144" height="103" viewBox="0 0 144 103" xmlns="http://www.w3.org/2000/svg" xmlns:xlink="http://www.w3.org/1999/xlink"><svg width="9" height="16" viewBox="0 0 9 16" id="arrow-left" x="133.88" y="58.47"><defs><style>.acls-1{fill:#000;fill-rule:evenodd}</style></defs><path id="aarrow-left.svg" class="acls-1" d="M360.5 4625.48a1.136 1.136 0 0 1 .323-.79l6.788-6.89a1.092 1.092 0 0 1 1.564 0 1.139 1.139 0 0 1 0 1.59l-6.007 6.09 6.006 6.1a1.137 1.137 0 0 1 0 1.59 1.108 1.108 0 0 1-1.563 0l-6.788-6.89a1.138 1.138 0 0 1-.323-.8z" transform="translate(-360.5 -4617.5)"/></svg><svg width="8.97" height="16" viewBox="0 0 8.97 16" id="arrow-right" x="124.91" y="58.47"><defs><style>.bcls-1{fill:#000;fill-rule:evenodd}</style></defs><path id="barrow-right.svg" class="bcls-1" d="M1539.5 4625.48a1.155 1.155 0 0 0-.32-.79l-6.79-6.89a1.087 1.087 0 0 0-1.56 0 1.123 1.123 0 0 0 0 1.59l6 6.09-6 6.1a1.123 1.123 0 0 0 0 1.59 1.1 1.1 0 0 0 1.56 0l6.79-6.89a1.161 1.161 0 0 0 .32-.8z" transform="translate(-1530.53 -4617.5)"/></svg><svg width="27.47" height="28.47" viewBox="0 0 27.47 28.47" id="certificate" x="114" y="30"><defs><style>.ccls-1{fill-rule:evenodd}</style></defs><path id="ccertificate.svg" class="ccls-1" d="M1089.44 1413a.5.5 0 0 0-.4-.34l-3.89-.55-1.73-3.39a.516.516 0 0 0-.89 0l-1.73 3.39-3.89.55a.487.487 0 0 0-.4.34.5.5 0 0 0 .13.52l2.8 2.64-.66 3.72a.521.521 0 0 0 .19.49.508.508 0 0 0 .53.04l3.47-1.76 3.48 1.76a.465.465 0 0 0 .23.06.566.566 0 0 0 .3-.1.513.513 0 0 0 .19-.49l-.66-3.72 2.8-2.64a.5.5 0 0 0 .13-.52zm-3.81 2.61a.523.523 0 0 0-.15.46l.53 2.99-2.81-1.42a.465.465 0 0 0-.23-.06.456.456 0 0 0-.22.06l-2.81 1.42.53-2.99a.523.523 0 0 0-.15-.46l-2.24-2.1 3.11-.44a.5.5 0 0 0 .38-.27l1.4-2.75 1.41 2.75a.473.473 0 0 0 .38.27l3.1.44zm-1.16-17.6h-8.99a.5.5 0 0 0 0 1h8.99a.5.5 0 0 0 0-1zm0 7.01h-8.99a.508.508 0 0 0-.5.5.5.5 0 0 0 .5.5h8.99a.5.5 0 0 0 .5-.5.5.5 0 0 0-.5-.5zm-12.19-9.39a.505.505 0 0 0-.71.05l-3.12 3.65-1.91-1.43a.476.476 0 0 0-.69.1.489.489 0 0 0 .1.7l2.28 1.71a.482.482 0 0 0 .3.11.493.493 0 0 0 .38-.18l3.42-4.01a.493.493 0 0 0-.05-.7zm0 7.01a.505.505 0 0 0-.71.05l-3.12 3.65-1.91-1.43a.5.5 0 0 0-.59.8l2.28 1.72a.539.539 0 0 0 .3.1.493.493 0 0 0 .38-.18l3.42-4.01a.494.494 0 0 0-.05-.7zm-.71 7.57l-3.12 3.65-1.91-1.44a.493.493 0 0 0-.69.1.488.488 0 0 0 .1.7l2.28 1.72a.472.472 0 0 0 .3.1.493.493 0 0 0 .38-.18l3.42-4a.5.5 0 1 0-.76-.65zm3.91 7.84h-7.4a5.1 5.1 0 0 1-5.08-5.1v-14.85a5.1 5.1 0 0 1 5.08-5.1h14.81a5.1 5.1 0 0 1 5.08 5.1v11.97a.5.5 0 0 0 .5.5.5.5 0 0 0 .5-.5v-11.97a6.1 6.1 0 0 0-6.08-6.1h-14.81a6.1 6.1 0 0 0-6.08 6.1v14.85a6.1 6.1 0 0 0 6.08 6.1h7.4a.5.5 0 0 0 .5-.5.5.5 0 0 0-.5-.5z" transform="translate(-1062 -1392)"/></svg><svg width="30" height="30" viewBox="0 0 30 30" id="clock" x="114"><defs><style>.dcls-1{fill-rule:evenodd}</style></defs><path id="dclock.svg" class="dcls-1" d="M1075.5 1442a15 15 0 1 0 15 15 15.018 15.018 0 0 0-15-15zm0 29a14 14 0 1 1 14-14 14.015 14.015 0 0 1-14 14zm.5-15.99v-5.07a.5.5 0 0 0-1 0v5.07a1.992 1.992 0 0 0-1.43 1.43H1070a.5.5 0 0 0 0 1h3.57a2 2 0 1 0 2.43-2.43zm-.5 2.93a1 1 0 1 1 1-1 1 1 0 0 1-1 1zm0-11a.5.5 0 0 0 .5-.5v-.5a.5.5 0 0 0-1 0v.5a.5.5 0 0 0 .5.5zm0 20a.5.5 0 0 0-.5.5v.5a.5.5 0 0 0 1 0v-.5a.5.5 0 0 0-.5-.5zm11-10.5h-.5a.5.5 0 0 0 0 1h.5a.5.5 0 0 0 0-1zm-21.5 0h-.5a.5.5 0 0 0 0 1h.5a.5.5 0 0 0 0-1zm17.92-7.63l-.35.35a.513.513 0 0 0 0 .71.491.491 0 0 0 .35.14.5.5 0 0 0 .36-.14l.35-.36a.483.483 0 0 0 0-.7.5.5 0 0 0-.71 0zm-15.2 15.2l-.35.35a.5.5 0 0 0 0 .71.485.485 0 0 0 .35.15.508.508 0 0 0 .36-.15l.35-.35a.5.5 0 0 0-.71-.71zm15.56 0a.5.5 0 0 0-.71.71l.35.35a.508.508 0 0 0 .36.15.485.485 0 0 0 .35-.15.5.5 0 0 0 0-.71zm-15.2-15.2a.5.5 0 0 0-.71 0 .483.483 0 0 0 0 .7l.35.36a.5.5 0 0 0 .36.14.491.491 0 0 0 .35-.14.513.513 0 0 0 0-.71z" transform="translate(-1060.5 -1442)"/></svg><svg width="31" height="15" viewBox="0 0 31 15" id="deco-left" x="31" y="74"><defs><style>.ecls-1{fill:#fff;fill-rule:evenodd}</style></defs><path id="edeco-left.svg" class="ecls-1" d="M768 3163h22v2h-22v-2zm-9 6.5h31v2h-31v-2zm9 6.5h22v2h-22v-2z" transform="translate(-759 -3163)"/></svg><svg width="31" height="15" viewBox="0 0 31 15" id="deco-left-dark" y="74"><defs><style>.fcls-1{fill:#000;fill-rule:evenodd}</style></defs><path id="fdeco-left.svg" class="fcls-1" d="M768 3163h22v2h-22v-2zm-9 6.5h31v2h-31v-2zm9 6.5h22v2h-22v-2z" transform="translate(-759 -3163)"/></svg><svg width="32" height="15" viewBox="0 0 32 15" id="deco-right" x="82"><defs><style>.gcls-1{fill:#fff;fill-rule:evenodd}</style></defs><path id="gdeco-right.svg" class="gcls-1" d="M1106 3163h23a2.436 2.436 0 0 1-.5 1.5c-2.67 1.69-18.02.56-22.5.5v-2zm0 6.5h32v2h-32v-2zm0 6.5h22.5a1.409 1.409 0 0 0 .5.5v1.5h-23v-2z" transform="translate(-1106 -3163)"/></svg><svg width="32" height="15" viewBox="0 0 32 15" id="deco-right-dark" x="82" y="15"><defs><style>.hcls-1{fill:#000;fill-rule:evenodd}</style></defs><path id="hdeco-right.svg" class="hcls-1" d="M1106 3163h23a2.436 2.436 0 0 1-.5 1.5c-2.67 1.69-18.02.56-22.5.5v-2zm0 6.5h32v2h-32v-2zm0 6.5h22.5a1.409 1.409 0 0 0 .5.5v1.5h-23v-2z" transform="translate(-1106 -3163)"/></svg><svg width="41" height="35" viewBox="0 0 41 35" id="envelope"><defs><style>.icls-1{fill:none;stroke:#fff;stroke-linejoin:round;stroke-opacity:.54;stroke-width:1px;fill-rule:evenodd}</style></defs><path id="ifa-envelope.svg" class="icls-1" d="M1371.12 7101.06q-6.225 4.35-9.46 6.76c-.72.54-1.31.97-1.75 1.28a11.252 11.252 0 0 1-1.8.94 5.331 5.331 0 0 1-2.09.48h-.04a5.369 5.369 0 0 1-2.09-.48 11.1 11.1 0 0 1-1.79-.94c-.45-.31-1.04-.74-1.76-1.28q-2.565-1.95-9.44-6.76a10.434 10.434 0 0 1-1.92-1.7v15.54a3.073 3.073 0 0 0 .89 2.21 2.868 2.868 0 0 0 2.15.92h27.96a2.868 2.868 0 0 0 2.15-.92 3.033 3.033 0 0 0 .89-2.21v-15.54a10.418 10.418 0 0 1-1.9 1.7zm1-9.67a2.9 2.9 0 0 0-2.14-.92h-27.96a2.662 2.662 0 0 0-2.25 1.02 4.01 4.01 0 0 0-.79 2.54 4.691 4.691 0 0 0 1.04 2.68 9.778 9.778 0 0 0 2.23 2.26q.645.465 3.89 2.78t4.98 3.58c.13.09.39.29.81.6s.75.55 1.02.74.6.4.99.64a5.6 5.6 0 0 0 1.09.52 2.881 2.881 0 0 0 .95.18h.04a2.881 2.881 0 0 0 .95-.18 5.339 5.339 0 0 0 1.09-.52c.39-.24.72-.45.99-.64s.61-.44 1.03-.74.68-.51.8-.6q1.755-1.26 8.89-6.36a9.162 9.162 0 0 0 2.32-2.41 5.277 5.277 0 0 0 .93-2.96 3.042 3.042 0 0 0-.9-2.21z" transform="translate(-1335.5 -7086.5)"/></svg><svg width="41" height="35" viewBox="0 0 41 35" id="fa-envelope" x="41"><defs><style>.jcls-1{fill:none;stroke:#fff;stroke-linejoin:round;stroke-opacity:.54;stroke-width:1px;fill-rule:evenodd}</style></defs><path id="jfa-envelope.svg" class="jcls-1" d="M1371.12 7101.06q-6.225 4.35-9.46 6.76c-.72.54-1.31.97-1.75 1.28a11.252 11.252 0 0 1-1.8.94 5.331 5.331 0 0 1-2.09.48h-.04a5.369 5.369 0 0 1-2.09-.48 11.1 11.1 0 0 1-1.79-.94c-.45-.31-1.04-.74-1.76-1.28q-2.565-1.95-9.44-6.76a10.434 10.434 0 0 1-1.92-1.7v15.54a3.073 3.073 0 0 0 .89 2.21 2.868 2.868 0 0 0 2.15.92h27.96a2.868 2.868 0 0 0 2.15-.92 3.033 3.033 0 0 0 .89-2.21v-15.54a10.418 10.418 0 0 1-1.9 1.7zm1-9.67a2.9 2.9 0 0 0-2.14-.92h-27.96a2.662 2.662 0 0 0-2.25 1.02 4.01 4.01 0 0 0-.79 2.54 4.691 4.691 0 0 0 1.04 2.68 9.778 9.778 0 0 0 2.23 2.26q.645.465 3.89 2.78t4.98 3.58c.13.09.39.29.81.6s.75.55 1.02.74.6.4.99.64a5.6 5.6 0 0 0 1.09.52 2.881 2.881 0 0 0 .95.18h.04a2.881 2.881 0 0 0 .95-.18 5.339 5.339 0 0 0 1.09-.52c.39-.24.72-.45.99-.64s.61-.44 1.03-.74.68-.51.8-.6q1.755-1.26 8.89-6.36a9.162 9.162 0 0 0 2.32-2.41 5.277 5.277 0 0 0 .93-2.96 3.042 3.042 0 0 0-.9-2.21z" transform="translate(-1335.5 -7086.5)"/></svg><svg width="38" height="39" viewBox="0 0 38 39" id="fa-phone" y="35"><defs><style>.kcls-1{fill:none;stroke:#fff;stroke-linejoin:round;stroke-opacity:.54;stroke-width:1px;fill-rule:evenodd}</style></defs><path id="kfa-phone.svg" class="kcls-1" d="M570.95 7110.91a3.91 3.91 0 0 0-1.7-1.18c-.284-.17-.687-.39-1.209-.67s-1-.55-1.422-.79-.825-.47-1.2-.69c-.06-.05-.247-.18-.56-.4a8.133 8.133 0 0 0-.8-.48 1.515 1.515 0 0 0-.638-.15 1.866 1.866 0 0 0-1.12.63 11.232 11.232 0 0 0-1.232 1.39 12.938 12.938 0 0 1-1.187 1.39 1.687 1.687 0 0 1-1.03.64 1.633 1.633 0 0 1-.5-.11c-.2-.08-.354-.14-.458-.19s-.284-.16-.538-.31-.4-.25-.425-.26a23.762 23.762 0 0 1-5.263-3.9 23.361 23.361 0 0 1-3.9-5.27c-.016-.02-.1-.17-.258-.42s-.261-.43-.314-.54a4.77 4.77 0 0 1-.19-.46 1.5 1.5 0 0 1-.112-.5 1.709 1.709 0 0 1 .638-1.03 14.1 14.1 0 0 1 1.389-1.19 10.48 10.48 0 0 0 1.388-1.23 1.858 1.858 0 0 0 .638-1.12 1.482 1.482 0 0 0-.156-.64 7.321 7.321 0 0 0-.482-.8c-.216-.31-.347-.49-.392-.56-.224-.37-.455-.77-.694-1.19s-.5-.9-.784-1.43-.508-.92-.671-1.2a3.859 3.859 0 0 0-1.188-1.71 1.346 1.346 0 0 0-.47-.07 7.426 7.426 0 0 0-1.579.23 9.35 9.35 0 0 0-1.533.47 5.961 5.961 0 0 0-2.374 2.73 8.735 8.735 0 0 0-1.142 4.17 8.622 8.622 0 0 0 .078 1.17 9.18 9.18 0 0 0 .28 1.29c.134.48.242.84.325 1.07s.235.64.459 1.24.358.96.4 1.1a20.338 20.338 0 0 0 1.859 3.92 37.747 37.747 0 0 0 10.749 10.75 19.92 19.92 0 0 0 3.918 1.86c.135.04.5.18 1.1.4s1.011.38 1.243.46.585.19 1.063.33a12.078 12.078 0 0 0 1.288.28 9.022 9.022 0 0 0 1.176.08 8.714 8.714 0 0 0 4.165-1.15 6.006 6.006 0 0 0 2.732-2.37 8.877 8.877 0 0 0 .47-1.54 7.369 7.369 0 0 0 .224-1.58 1.3 1.3 0 0 0-.067-.47z" transform="translate(-536.5 -7082.5)"/></svg><svg width="10.91" height="20.5" viewBox="0 0 10.91 20.5" id="fb" x="114" y="58.47"><defs><style>.lcls-1{fill:#fff;fill-rule:evenodd}</style></defs><path id="lfb.svg" class="lcls-1" d="M1025.32 4444.34a4.847 4.847 0 0 0-3.5 1.26 4.688 4.688 0 0 0-1.31 3.56v2.68h-3.23v3.65h3.23v9.36h3.86v-9.36h3.21l.49-3.65h-3.7v-2.33a2.028 2.028 0 0 1 .38-1.33 1.908 1.908 0 0 1 1.47-.44h1.98v-3.26a23.2 23.2 0 0 0-2.88-.14z" transform="translate(-1017.28 -4444.34)"/></svg><svg width="22" height="31.5" viewBox="0 0 22 31.5" id="location" x="82" y="30"><defs><style>.mcls-1{fill:#fff;fill-rule:evenodd}</style></defs><path id="mlocation.svg" class="mcls-1" d="M949.6 7093.9a4.03 4.03 0 1 0 4.015 4.03 4.029 4.029 0 0 0-4.015-4.03zm0 6.91a2.88 2.88 0 1 1 2.868-2.88 2.876 2.876 0 0 1-2.868 2.88zm7.677-10.58a10.98 10.98 0 0 0-15.556 0c-3.845 3.86-4.323 11.11-1.035 15.51l8.813 12.76 8.8-12.75c3.301-4.41 2.824-11.66-1.021-15.52zm.091 14.85l-7.869 11.4-7.882-11.42c-2.982-3.98-2.555-10.53.915-14.01a9.819 9.819 0 0 1 13.934 0c3.471 3.48 3.898 10.03.903 14.03z" transform="translate(-938.5 -7087)"/></svg><svg width="13.5" height="13.5" viewBox="0 0 13.5 13.5" id="no" y="89"><defs><style>.ncls-1{fill:#c20000;fill-rule:evenodd}</style></defs><path id="nno.svg" class="ncls-1" d="M387.192 2350.97a.308.308 0 0 1 0-.44l4.623-4.62a.592.592 0 0 0 0-.86l-.863-.86a.64.64 0 0 0-.431-.19.543.543 0 0 0-.432.19l-4.623 4.62a.3.3 0 0 1-.432 0l-4.623-4.62a.585.585 0 0 0-.863 0l-.863.86a.592.592 0 0 0 0 .86l4.623 4.62a.307.307 0 0 1 0 .44l-4.623 4.62a.592.592 0 0 0 0 .86l.863.86a.585.585 0 0 0 .863 0l4.623-4.62a.3.3 0 0 1 .432 0l4.623 4.62a.585.585 0 0 0 .863 0l.863-.86a.592.592 0 0 0 0-.86z" transform="translate(-378.5 -2344)"/></svg><svg width="38" height="39" viewBox="0 0 38 39" id="phone" x="38" y="35"><defs><style>.ocls-1{fill:none;stroke:#fff;stroke-linejoin:round;stroke-opacity:.54;stroke-width:1px;fill-rule:evenodd}</style></defs><path id="ofa-phone.svg" class="ocls-1" d="M570.95 7110.91a3.91 3.91 0 0 0-1.7-1.18c-.284-.17-.687-.39-1.209-.67s-1-.55-1.422-.79-.825-.47-1.2-.69c-.06-.05-.247-.18-.56-.4a8.133 8.133 0 0 0-.8-.48 1.515 1.515 0 0 0-.638-.15 1.866 1.866 0 0 0-1.12.63 11.232 11.232 0 0 0-1.232 1.39 12.938 12.938 0 0 1-1.187 1.39 1.687 1.687 0 0 1-1.03.64 1.633 1.633 0 0 1-.5-.11c-.2-.08-.354-.14-.458-.19s-.284-.16-.538-.31-.4-.25-.425-.26a23.762 23.762 0 0 1-5.263-3.9 23.361 23.361 0 0 1-3.9-5.27c-.016-.02-.1-.17-.258-.42s-.261-.43-.314-.54a4.77 4.77 0 0 1-.19-.46 1.5 1.5 0 0 1-.112-.5 1.709 1.709 0 0 1 .638-1.03 14.1 14.1 0 0 1 1.389-1.19 10.48 10.48 0 0 0 1.388-1.23 1.858 1.858 0 0 0 .638-1.12 1.482 1.482 0 0 0-.156-.64 7.321 7.321 0 0 0-.482-.8c-.216-.31-.347-.49-.392-.56-.224-.37-.455-.77-.694-1.19s-.5-.9-.784-1.43-.508-.92-.671-1.2a3.859 3.859 0 0 0-1.188-1.71 1.346 1.346 0 0 0-.47-.07 7.426 7.426 0 0 0-1.579.23 9.35 9.35 0 0 0-1.533.47 5.961 5.961 0 0 0-2.374 2.73 8.735 8.735 0 0 0-1.142 4.17 8.622 8.622 0 0 0 .078 1.17 9.18 9.18 0 0 0 .28 1.29c.134.48.242.84.325 1.07s.235.64.459 1.24.358.96.4 1.1a20.338 20.338 0 0 0 1.859 3.92 37.747 37.747 0 0 0 10.749 10.75 19.92 19.92 0 0 0 3.918 1.86c.135.04.5.18 1.1.4s1.011.38 1.243.46.585.19 1.063.33a12.078 12.078 0 0 0 1.288.28 9.022 9.022 0 0 0 1.176.08 8.714 8.714 0 0 0 4.165-1.15 6.006 6.006 0 0 0 2.732-2.37 8.877 8.877 0 0 0 .47-1.54 7.369 7.369 0 0 0 .224-1.58 1.3 1.3 0 0 0-.067-.47z" transform="translate(-536.5 -7082.5)"/></svg><svg width="15.5" height="13" viewBox="0 0 15.5 13" id="yes" x="62" y="74"><defs><style>.pcls-1{fill:#6a9c00;fill-rule:evenodd}</style></defs><path id="pyes.svg" class="pcls-1" d="M390.806 2265.58l2.085 1.74a.309.309 0 0 1 .04.43l-8.961 10.64a.311.311 0 0 1-.264.11.349.349 0 0 1-.189-.08l-5.9-4.93a.315.315 0 0 1-.046-.44l1.744-2.07a.313.313 0 0 1 .439-.03l3.6 3.01 7.026-8.35a.3.3 0 0 1 .426-.03z" transform="translate(-377.5 -2265.5)"/></svg></svg>